<svg width="498" height="501" version="1.1" xmlns="http://www.w3.org/2000/svg" desc="Created with imagetracer.js version 1.2.6" ><path fill="rgb(33,62,204)" stroke="rgb(33,62,204)" stroke-width="1" opacity="0.8823529411764706" d="M 209.5 201 L 245.5 201 L 247 202.5 L 227 244.5 L 262 245 L 263 239.5 L 269 229.5 L 281 201 L 318.5 201 L 319 204.5 L 299 247 L 296.5 248 L 265.5 248 L 264 247.5 L 275 273.5 L 281 283.5 L 283 292 L 246.5 292 L 244 289.5 L 225.5 250 L 204.5 292 L 169.5 292 L 168 290.5 L 169 285.5 L 209.5 201 Z " /><path fill="rgb(33,62,204)" stroke="rgb(33,62,204)" stroke-width="1" opacity="0.8823529411764706" d="M 323.5 201 Q 330.5 199.5 330 202.5 L 331 206.5 Q 330.5 210.5 325.5 210 L 323 209 L 322 202.5 L 323.5 201 Z " /><path fill="rgb(0,0,0)" stroke="rgb(0,0,0)" stroke-width="1" opacity="0" d="M 0 0 L 498 0 L 498 501 L 0 501 L 0 0 Z M 210 201 L 169 286 L 168 291 L 170 292 L 205 292 L 226 250 L 244 290 L 247 292 L 283 292 L 281 284 L 275 274 L 264 248 L 266 248 L 297 248 L 299 247 L 319 205 L 319 201 L 281 201 L 269 230 L 263 240 L 262 245 L 227 245 L 247 203 L 246 201 L 210 201 Z M 324 201 L 322 203 L 323 209 L 326 210 Q 331 211 331 207 L 330 203 Q 330 199 324 201 Z " /></svg>